<?xml version="1.0" encoding="UTF-8"?>
<svg width="423px" height="302px" viewBox="0 0 423 302" xmlns="http://www.w3.org/2000/svg" xmlns:xlink="http://www.w3.org/1999/xlink" version="1.1">
 <!-- Generated by Pixelmator Pro 1.5.4 -->
 <g id="group">
  <path id="Path" d="M32.036 42.97 L194.946 71.551" fill="#000000" fill-opacity="1" stroke="#505050" stroke-width="0.5" stroke-opacity="1" stroke-linejoin="round"/>
  <path id="Path-1" d="M32.036 42.97 L194.946 128.712" fill="#000000" fill-opacity="1" stroke="#505050" stroke-width="0.5" stroke-opacity="1" stroke-linejoin="round"/>
  <path id="Path-2" d="M32.036 42.97 L194.946 185.874" fill="#000000" fill-opacity="1" stroke="#505050" stroke-width="0.5" stroke-opacity="1" stroke-linejoin="round"/>
  <path id="Path-3" d="M32.036 42.97 L194.946 243.035" fill="#000000" fill-opacity="1" stroke="#505050" stroke-width="0.5" stroke-opacity="1" stroke-linejoin="round"/>
  <path id="Path-4" d="M32.036 100.132 L194.946 71.551" fill="#000000" fill-opacity="1" stroke="#505050" stroke-width="0.5" stroke-opacity="1" stroke-linejoin="round"/>
  <path id="Path-5" d="M32.036 100.132 L194.946 128.712" fill="#000000" fill-opacity="1" stroke="#505050" stroke-width="0.5" stroke-opacity="1" stroke-linejoin="round"/>
  <path id="Path-6" d="M32.036 100.132 L194.946 185.874" fill="#000000" fill-opacity="1" stroke="#505050" stroke-width="0.5" stroke-opacity="1" stroke-linejoin="round"/>
  <path id="Path-7" d="M32.036 100.132 L194.946 243.035" fill="#000000" fill-opacity="1" stroke="#505050" stroke-width="0.5" stroke-opacity="1" stroke-linejoin="round"/>
  <path id="Path-8" d="M32.036 157.293 L194.946 71.551" fill="#000000" fill-opacity="1" stroke="#505050" stroke-width="0.5" stroke-opacity="1" stroke-linejoin="round"/>
  <path id="Path-9" d="M32.036 157.293 L194.946 128.712" fill="#000000" fill-opacity="1" stroke="#505050" stroke-width="0.5" stroke-opacity="1" stroke-linejoin="round"/>
  <path id="Path-10" d="M32.036 157.293 L194.946 185.874" fill="#000000" fill-opacity="1" stroke="#505050" stroke-width="0.5" stroke-opacity="1" stroke-linejoin="round"/>
  <path id="Path-11" d="M32.036 157.293 L194.946 243.035" fill="#000000" fill-opacity="1" stroke="#505050" stroke-width="0.5" stroke-opacity="1" stroke-linejoin="round"/>
  <path id="Path-12" d="M32.036 214.454 L194.946 71.551" fill="#000000" fill-opacity="1" stroke="#505050" stroke-width="0.5" stroke-opacity="1" stroke-linejoin="round"/>
  <path id="Path-13" d="M32.036 214.454 L194.946 128.712" fill="#000000" fill-opacity="1" stroke="#505050" stroke-width="0.5" stroke-opacity="1" stroke-linejoin="round"/>
  <path id="Path-14" d="M32.036 214.454 L194.946 185.874" fill="#000000" fill-opacity="1" stroke="#505050" stroke-width="0.5" stroke-opacity="1" stroke-linejoin="round"/>
  <path id="Path-15" d="M32.036 214.454 L194.946 243.035" fill="#000000" fill-opacity="1" stroke="#505050" stroke-width="0.5" stroke-opacity="1" stroke-linejoin="round"/>
  <path id="Path-16" d="M194.946 14.39 L357.856 128.712" fill="#000000" fill-opacity="1" stroke="#505050" stroke-width="0.5" stroke-opacity="1" stroke-linejoin="round"/>
  <path id="Path-17" d="M194.946 71.551 L357.856 128.712" fill="#000000" fill-opacity="1" stroke="#505050" stroke-width="0.5" stroke-opacity="1" stroke-linejoin="round"/>
  <path id="Path-18" d="M194.946 128.712 L357.856 128.712" fill="#000000" fill-opacity="1" stroke="#505050" stroke-width="0.5" stroke-opacity="1" stroke-linejoin="round"/>
  <path id="Path-19" d="M194.946 185.874 L357.856 128.712" fill="#000000" fill-opacity="1" stroke="#505050" stroke-width="0.5" stroke-opacity="1" stroke-linejoin="round"/>
  <path id="Path-20" d="M194.946 243.035 L357.856 128.712" fill="#000000" fill-opacity="1" stroke="#505050" stroke-width="0.5" stroke-opacity="1" stroke-linejoin="round"/>
  <path id="Path-21" d="M32.036 42.97 L194.946 14.39" fill="#000000" fill-opacity="1" stroke="#505050" stroke-width="0.5" stroke-opacity="1" stroke-linejoin="round"/>
  <path id="Path-22" d="M32.036 100.132 L194.946 14.39" fill="#000000" fill-opacity="1" stroke="#505050" stroke-width="0.5" stroke-opacity="1" stroke-linejoin="round"/>
  <path id="Path-23" d="M32.036 157.293 L194.946 14.39" fill="#000000" fill-opacity="1" stroke="#505050" stroke-width="0.5" stroke-opacity="1" stroke-linejoin="round"/>
  <path id="Path-24" d="M32.036 214.454 L194.946 14.39" fill="#000000" fill-opacity="1" stroke="#505050" stroke-width="0.5" stroke-opacity="1" stroke-linejoin="round"/>
  <path id="0_0" d="M46.327 42.97 C46.327 50.863 39.929 57.261 32.036 57.261 24.144 57.261 17.746 50.863 17.746 42.97 17.746 35.078 24.144 28.68 32.036 28.68 39.929 28.68 46.327 35.078 46.327 42.97 Z" fill="#ffffff" fill-opacity="1" stroke="#000000" stroke-width="1" stroke-opacity="1" stroke-linejoin="round"/>
  <path id="0_1" d="M46.327 100.132 C46.327 108.024 39.929 114.422 32.036 114.422 24.144 114.422 17.746 108.024 17.746 100.132 17.746 92.239 24.144 85.841 32.036 85.841 39.929 85.841 46.327 92.239 46.327 100.132 Z" fill="#ffffff" fill-opacity="1" stroke="#000000" stroke-width="1" stroke-opacity="1" stroke-linejoin="round"/>
  <path id="0_2" d="M46.327 157.293 C46.327 165.185 39.929 171.583 32.036 171.583 24.144 171.583 17.746 165.185 17.746 157.293 17.746 149.401 24.144 143.003 32.036 143.003 39.929 143.003 46.327 149.401 46.327 157.293 Z" fill="#ffffff" fill-opacity="1" stroke="#000000" stroke-width="1" stroke-opacity="1" stroke-linejoin="round"/>
  <path id="0_3" d="M46.327 214.454 C46.327 222.347 39.929 228.745 32.036 228.745 24.144 228.745 17.746 222.347 17.746 214.454 17.746 206.562 24.144 200.164 32.036 200.164 39.929 200.164 46.327 206.562 46.327 214.454 Z" fill="#ffffff" fill-opacity="1" stroke="#000000" stroke-width="1" stroke-opacity="1" stroke-linejoin="round"/>
  <path id="1_0" d="M209.236 14.39 C209.236 22.282 202.838 28.68 194.946 28.68 187.054 28.68 180.656 22.282 180.656 14.39 180.656 6.497 187.054 0.099 194.946 0.099 202.838 0.099 209.236 6.497 209.236 14.39 Z" fill="#ffffff" fill-opacity="1" stroke="#000000" stroke-width="1" stroke-opacity="1" stroke-linejoin="round"/>
  <defs>
   <text id="string" transform="matrix(1.0 0.0 0.0 1.0 -0.7456898689200031 285.05102157592)">
    <tspan font-family="Helvetica, Helvetica" x="1.0" text-decoration="none" font-size="12" y="13.0">Input Layer </tspan>
    <tspan font-family="AppleSymbols, Apple Symbols" x="64.375" text-decoration="none" font-size="12" y="13.0">∈</tspan>
    <tspan font-family="Helvetica, Helvetica" x="71.2890625" text-decoration="none" font-size="12" y="13.0"> </tspan>
    <tspan font-family="ArialUnicodeMS, Arial Unicode MS" x="74.623046875" text-decoration="none" font-size="12" y="13.0">ℝ</tspan>
    <tspan font-family="Helvetica, Helvetica" x="82.626953125" text-decoration="none" font-size="12" y="13.0">⁴</tspan>
   </text>
  </defs>
  <use id="Input-Layer-∈-ℝ⁴" xlink:href="#string" fill="#000000" fill-opacity="1" stroke="none"/>
  <defs>
   <text id="string-1" transform="matrix(1.0 0.0 0.0 1.0 164.73810338974 285.05102157592)">
    <tspan font-family="Helvetica, Helvetica" x="1.0" text-decoration="none" font-size="12" y="13.0">Hidden Layer </tspan>
    <tspan font-family="AppleSymbols, Apple Symbols" x="75.712890625" text-decoration="none" font-size="12" y="13.0">∈</tspan>
    <tspan font-family="Helvetica, Helvetica" x="82.626953125" text-decoration="none" font-size="12" y="13.0"> </tspan>
    <tspan font-family="ArialUnicodeMS, Arial Unicode MS" x="85.9609375" text-decoration="none" font-size="12" y="13.0">ℝ</tspan>
    <tspan font-family="Helvetica, Helvetica" x="93.96484375" text-decoration="none" font-size="12" y="13.0">⁵</tspan>
   </text>
  </defs>
  <use id="Hidden-Layer-∈-ℝ⁵" xlink:href="#string-1" fill="#000000" fill-opacity="1" stroke="none"/>
  <path id="1_1" d="M209.236 71.551 C209.236 79.443 202.838 85.841 194.946 85.841 187.054 85.841 180.656 79.443 180.656 71.551 180.656 63.659 187.054 57.261 194.946 57.261 202.838 57.261 209.236 63.659 209.236 71.551 Z" fill="#ffffff" fill-opacity="1" stroke="#000000" stroke-width="1" stroke-opacity="1" stroke-linejoin="round"/>
  <path id="1_2" d="M209.236 128.712 C209.236 136.605 202.838 143.003 194.946 143.003 187.054 143.003 180.656 136.605 180.656 128.712 180.656 120.82 187.054 114.422 194.946 114.422 202.838 114.422 209.236 120.82 209.236 128.712 Z" fill="#ffffff" fill-opacity="1" stroke="#000000" stroke-width="1" stroke-opacity="1" stroke-linejoin="round"/>
  <path id="1_3" d="M209.236 185.874 C209.236 193.766 202.838 200.164 194.946 200.164 187.054 200.164 180.656 193.766 180.656 185.874 180.656 177.981 187.054 171.583 194.946 171.583 202.838 171.583 209.236 177.981 209.236 185.874 Z" fill="#ffffff" fill-opacity="1" stroke="#000000" stroke-width="1" stroke-opacity="1" stroke-linejoin="round"/>
  <path id="1_4" d="M209.236 243.035 C209.236 250.927 202.838 257.325 194.946 257.325 187.054 257.325 180.656 250.927 180.656 243.035 180.656 235.142 187.054 228.745 194.946 228.745 202.838 228.745 209.236 235.142 209.236 243.035 Z" fill="#ffffff" fill-opacity="1" stroke="#000000" stroke-width="1" stroke-opacity="1" stroke-linejoin="round"/>
  <path id="2_0" d="M372.146 128.712 C372.146 136.605 365.748 143.003 357.856 143.003 349.963 143.003 343.565 136.605 343.565 128.712 343.565 120.82 349.963 114.422 357.856 114.422 365.748 114.422 372.146 120.82 372.146 128.712 Z" fill="#ffffff" fill-opacity="1" stroke="#000000" stroke-width="1" stroke-opacity="1" stroke-linejoin="round"/>
  <defs>
   <text id="string-2" transform="matrix(1.0 0.0 0.0 1.0 327.21867537498 285.05102157592)">
    <tspan font-family="Helvetica, Helvetica" x="1.0" text-decoration="none" font-size="12" y="13.0">Output Layer </tspan>
    <tspan font-family="AppleSymbols, Apple Symbols" x="73.708984375" text-decoration="none" font-size="12" y="13.0">∈</tspan>
    <tspan font-family="Helvetica, Helvetica" x="80.623046875" text-decoration="none" font-size="12" y="13.0"> </tspan>
    <tspan font-family="ArialUnicodeMS, Arial Unicode MS" x="83.95703125" text-decoration="none" font-size="12" y="13.0">ℝ</tspan>
    <tspan font-family="Helvetica, Helvetica" x="91.9609375" text-decoration="none" font-size="12" y="13.0">¹</tspan>
   </text>
  </defs>
  <use id="Output-Layer-∈-ℝ¹" xlink:href="#string-2" fill="#000000" fill-opacity="1" stroke="none"/>
 </g>
</svg>
